<mxfile host="app.diagrams.net" modified="2021-03-26T07:14:51.120Z" agent="5.0 (Windows NT 10.0; Win64; x64) AppleWebKit/537.36 (KHTML, like Gecko) Chrome/89.0.4389.90 Safari/537.36 Edg/89.0.774.57" etag="SwTEnSq_1-vGVYe1W_bZ" version="13.4.9" type="github">
  <diagram name="Page-1" id="822b0af5-4adb-64df-f703-e8dfc1f81529">
    <mxGraphModel dx="1360" dy="802" grid="1" gridSize="10" guides="1" tooltips="1" connect="1" arrows="1" fold="1" page="1" pageScale="1" pageWidth="1100" pageHeight="850" background="#ffffff" math="0" shadow="0">
      <root>
        <mxCell id="0" />
        <mxCell id="1" parent="0" />
        <mxCell id="Jwwh-HOvZ4n604pUyPyW-54" value="" style="rounded=0;whiteSpace=wrap;html=1;dashed=1;fillColor=none;strokeColor=#0000FF;" vertex="1" parent="1">
          <mxGeometry x="620" y="330" width="430" height="430" as="geometry" />
        </mxCell>
        <mxCell id="Jwwh-HOvZ4n604pUyPyW-50" value="" style="rounded=0;whiteSpace=wrap;html=1;fillColor=none;dashed=1;strokeColor=#FF0000;" vertex="1" parent="1">
          <mxGeometry x="600" y="175" width="480" height="605" as="geometry" />
        </mxCell>
        <mxCell id="Jwwh-HOvZ4n604pUyPyW-52" value="" style="rounded=0;whiteSpace=wrap;html=1;dashed=1;fillColor=none;strokeColor=#0000FF;" vertex="1" parent="1">
          <mxGeometry x="100" y="330" width="430" height="430" as="geometry" />
        </mxCell>
        <mxCell id="Jwwh-HOvZ4n604pUyPyW-47" value="" style="rounded=0;whiteSpace=wrap;html=1;fillColor=none;dashed=1;strokeColor=#FF0000;shadow=0;glass=0;" vertex="1" parent="1">
          <mxGeometry x="50" y="175" width="500" height="605" as="geometry" />
        </mxCell>
        <mxCell id="Jwwh-HOvZ4n604pUyPyW-6" style="edgeStyle=orthogonalEdgeStyle;rounded=0;orthogonalLoop=1;jettySize=auto;html=1;entryX=0.5;entryY=0;entryDx=0;entryDy=0;strokeWidth=3;" edge="1" parent="1" source="Jwwh-HOvZ4n604pUyPyW-1" target="Jwwh-HOvZ4n604pUyPyW-3">
          <mxGeometry relative="1" as="geometry" />
        </mxCell>
        <mxCell id="Jwwh-HOvZ4n604pUyPyW-1" value="Nginx1" style="rounded=0;whiteSpace=wrap;html=1;" vertex="1" parent="1">
          <mxGeometry x="390" y="200" width="120" height="60" as="geometry" />
        </mxCell>
        <mxCell id="Jwwh-HOvZ4n604pUyPyW-7" style="edgeStyle=orthogonalEdgeStyle;rounded=0;orthogonalLoop=1;jettySize=auto;html=1;entryX=0.5;entryY=0;entryDx=0;entryDy=0;strokeWidth=3;" edge="1" parent="1" source="Jwwh-HOvZ4n604pUyPyW-2" target="Jwwh-HOvZ4n604pUyPyW-4">
          <mxGeometry relative="1" as="geometry" />
        </mxCell>
        <mxCell id="Jwwh-HOvZ4n604pUyPyW-2" value="Nginx2" style="rounded=0;whiteSpace=wrap;html=1;" vertex="1" parent="1">
          <mxGeometry x="680" y="200" width="120" height="60" as="geometry" />
        </mxCell>
        <mxCell id="Jwwh-HOvZ4n604pUyPyW-3" value="Zuul1" style="rounded=0;whiteSpace=wrap;html=1;" vertex="1" parent="1">
          <mxGeometry x="390" y="350" width="120" height="60" as="geometry" />
        </mxCell>
        <mxCell id="Jwwh-HOvZ4n604pUyPyW-4" value="Zuul2" style="rounded=0;whiteSpace=wrap;html=1;" vertex="1" parent="1">
          <mxGeometry x="680" y="350" width="120" height="60" as="geometry" />
        </mxCell>
        <mxCell id="Jwwh-HOvZ4n604pUyPyW-11" value="" style="endArrow=classic;html=1;exitX=0;exitY=1;exitDx=0;exitDy=0;entryX=1;entryY=0;entryDx=0;entryDy=0;strokeWidth=3;" edge="1" parent="1" source="Jwwh-HOvZ4n604pUyPyW-2" target="Jwwh-HOvZ4n604pUyPyW-3">
          <mxGeometry width="50" height="50" relative="1" as="geometry">
            <mxPoint x="580" y="440" as="sourcePoint" />
            <mxPoint x="520" y="480" as="targetPoint" />
          </mxGeometry>
        </mxCell>
        <mxCell id="Jwwh-HOvZ4n604pUyPyW-12" value="" style="endArrow=classic;html=1;entryX=0;entryY=0;entryDx=0;entryDy=0;exitX=1;exitY=1;exitDx=0;exitDy=0;strokeWidth=3;" edge="1" parent="1" source="Jwwh-HOvZ4n604pUyPyW-1" target="Jwwh-HOvZ4n604pUyPyW-4">
          <mxGeometry width="50" height="50" relative="1" as="geometry">
            <mxPoint x="530" y="320" as="sourcePoint" />
            <mxPoint x="580" y="270" as="targetPoint" />
          </mxGeometry>
        </mxCell>
        <mxCell id="Jwwh-HOvZ4n604pUyPyW-13" value="Eureka1" style="rounded=0;whiteSpace=wrap;html=1;" vertex="1" parent="1">
          <mxGeometry x="160" y="440" width="120" height="60" as="geometry" />
        </mxCell>
        <mxCell id="Jwwh-HOvZ4n604pUyPyW-14" value="Eureka2" style="rounded=0;whiteSpace=wrap;html=1;" vertex="1" parent="1">
          <mxGeometry x="880" y="425" width="120" height="60" as="geometry" />
        </mxCell>
        <mxCell id="Jwwh-HOvZ4n604pUyPyW-16" value="" style="endArrow=classic;html=1;entryX=0.5;entryY=0;entryDx=0;entryDy=0;exitX=0.5;exitY=1;exitDx=0;exitDy=0;strokeWidth=2;" edge="1" parent="1" source="Jwwh-HOvZ4n604pUyPyW-4" target="Jwwh-HOvZ4n604pUyPyW-29">
          <mxGeometry relative="1" as="geometry">
            <mxPoint x="520" y="480" as="sourcePoint" />
            <mxPoint x="620" y="480" as="targetPoint" />
          </mxGeometry>
        </mxCell>
        <mxCell id="Jwwh-HOvZ4n604pUyPyW-21" value="" style="endArrow=classic;html=1;dashed=1;entryX=1;entryY=0.5;entryDx=0;entryDy=0;exitX=0;exitY=0.5;exitDx=0;exitDy=0;" edge="1" parent="1" source="Jwwh-HOvZ4n604pUyPyW-3" target="Jwwh-HOvZ4n604pUyPyW-13">
          <mxGeometry relative="1" as="geometry">
            <mxPoint x="110" y="290" as="sourcePoint" />
            <mxPoint x="270" y="290" as="targetPoint" />
          </mxGeometry>
        </mxCell>
        <mxCell id="Jwwh-HOvZ4n604pUyPyW-25" value="" style="endArrow=classic;html=1;dashed=1;entryX=1;entryY=0.5;entryDx=0;entryDy=0;exitX=0;exitY=0.5;exitDx=0;exitDy=0;" edge="1" parent="1" source="Jwwh-HOvZ4n604pUyPyW-4" target="Jwwh-HOvZ4n604pUyPyW-13">
          <mxGeometry relative="1" as="geometry">
            <mxPoint x="400" y="390" as="sourcePoint" />
            <mxPoint x="220" y="470" as="targetPoint" />
          </mxGeometry>
        </mxCell>
        <mxCell id="Jwwh-HOvZ4n604pUyPyW-26" value="" style="endArrow=classic;html=1;dashed=1;exitX=1;exitY=0.5;exitDx=0;exitDy=0;entryX=0;entryY=0.5;entryDx=0;entryDy=0;" edge="1" parent="1" source="Jwwh-HOvZ4n604pUyPyW-3" target="Jwwh-HOvZ4n604pUyPyW-14">
          <mxGeometry relative="1" as="geometry">
            <mxPoint x="390" y="490" as="sourcePoint" />
            <mxPoint x="220" y="570" as="targetPoint" />
          </mxGeometry>
        </mxCell>
        <mxCell id="Jwwh-HOvZ4n604pUyPyW-27" value="" style="endArrow=classic;html=1;dashed=1;exitX=1.008;exitY=0.633;exitDx=0;exitDy=0;exitPerimeter=0;entryX=0;entryY=0.5;entryDx=0;entryDy=0;" edge="1" parent="1" source="Jwwh-HOvZ4n604pUyPyW-4" target="Jwwh-HOvZ4n604pUyPyW-14">
          <mxGeometry relative="1" as="geometry">
            <mxPoint x="390" y="490" as="sourcePoint" />
            <mxPoint x="850" y="460" as="targetPoint" />
          </mxGeometry>
        </mxCell>
        <mxCell id="Jwwh-HOvZ4n604pUyPyW-28" value="api1" style="rounded=0;whiteSpace=wrap;html=1;" vertex="1" parent="1">
          <mxGeometry x="390" y="520" width="120" height="60" as="geometry" />
        </mxCell>
        <mxCell id="Jwwh-HOvZ4n604pUyPyW-29" value="api2" style="rounded=0;whiteSpace=wrap;html=1;" vertex="1" parent="1">
          <mxGeometry x="680" y="520" width="120" height="60" as="geometry" />
        </mxCell>
        <mxCell id="Jwwh-HOvZ4n604pUyPyW-31" value="" style="endArrow=classic;html=1;entryX=0.5;entryY=0;entryDx=0;entryDy=0;strokeWidth=2;" edge="1" parent="1" target="Jwwh-HOvZ4n604pUyPyW-28">
          <mxGeometry relative="1" as="geometry">
            <mxPoint x="740" y="410" as="sourcePoint" />
            <mxPoint x="750" y="530" as="targetPoint" />
          </mxGeometry>
        </mxCell>
        <mxCell id="Jwwh-HOvZ4n604pUyPyW-32" value="" style="endArrow=classic;html=1;entryX=0.5;entryY=0;entryDx=0;entryDy=0;exitX=0.5;exitY=1;exitDx=0;exitDy=0;strokeWidth=2;" edge="1" parent="1" target="Jwwh-HOvZ4n604pUyPyW-28">
          <mxGeometry relative="1" as="geometry">
            <mxPoint x="449.5" y="410" as="sourcePoint" />
            <mxPoint x="449.5" y="520" as="targetPoint" />
          </mxGeometry>
        </mxCell>
        <mxCell id="Jwwh-HOvZ4n604pUyPyW-33" value="" style="endArrow=classic;html=1;entryX=0.5;entryY=0;entryDx=0;entryDy=0;strokeWidth=2;" edge="1" parent="1" target="Jwwh-HOvZ4n604pUyPyW-29">
          <mxGeometry relative="1" as="geometry">
            <mxPoint x="450" y="410" as="sourcePoint" />
            <mxPoint x="460" y="490" as="targetPoint" />
          </mxGeometry>
        </mxCell>
        <mxCell id="Jwwh-HOvZ4n604pUyPyW-34" value="" style="endArrow=classic;html=1;dashed=1;entryX=1;entryY=0.5;entryDx=0;entryDy=0;exitX=0;exitY=0.5;exitDx=0;exitDy=0;" edge="1" parent="1" source="Jwwh-HOvZ4n604pUyPyW-28" target="Jwwh-HOvZ4n604pUyPyW-13">
          <mxGeometry relative="1" as="geometry">
            <mxPoint x="400" y="390" as="sourcePoint" />
            <mxPoint x="290" y="480" as="targetPoint" />
          </mxGeometry>
        </mxCell>
        <mxCell id="Jwwh-HOvZ4n604pUyPyW-35" value="" style="endArrow=classic;html=1;dashed=1;entryX=0;entryY=0.5;entryDx=0;entryDy=0;exitX=1;exitY=0.5;exitDx=0;exitDy=0;" edge="1" parent="1" source="Jwwh-HOvZ4n604pUyPyW-28" target="Jwwh-HOvZ4n604pUyPyW-14">
          <mxGeometry relative="1" as="geometry">
            <mxPoint x="350" y="580" as="sourcePoint" />
            <mxPoint x="290" y="480" as="targetPoint" />
          </mxGeometry>
        </mxCell>
        <mxCell id="Jwwh-HOvZ4n604pUyPyW-36" value="" style="endArrow=classic;html=1;dashed=1;entryX=1;entryY=0.5;entryDx=0;entryDy=0;exitX=0;exitY=0.5;exitDx=0;exitDy=0;" edge="1" parent="1" source="Jwwh-HOvZ4n604pUyPyW-29" target="Jwwh-HOvZ4n604pUyPyW-13">
          <mxGeometry relative="1" as="geometry">
            <mxPoint x="400" y="560" as="sourcePoint" />
            <mxPoint x="290" y="480" as="targetPoint" />
          </mxGeometry>
        </mxCell>
        <mxCell id="Jwwh-HOvZ4n604pUyPyW-37" value="" style="endArrow=classic;html=1;dashed=1;entryX=0;entryY=0.5;entryDx=0;entryDy=0;exitX=1;exitY=0.5;exitDx=0;exitDy=0;" edge="1" parent="1" source="Jwwh-HOvZ4n604pUyPyW-29" target="Jwwh-HOvZ4n604pUyPyW-14">
          <mxGeometry relative="1" as="geometry">
            <mxPoint x="390" y="650" as="sourcePoint" />
            <mxPoint x="280" y="570" as="targetPoint" />
          </mxGeometry>
        </mxCell>
        <mxCell id="Jwwh-HOvZ4n604pUyPyW-38" value="多个业务服务1" style="rounded=0;whiteSpace=wrap;html=1;" vertex="1" parent="1">
          <mxGeometry x="390" y="650" width="120" height="60" as="geometry" />
        </mxCell>
        <mxCell id="Jwwh-HOvZ4n604pUyPyW-39" value="" style="endArrow=classic;html=1;entryX=0.5;entryY=0;entryDx=0;entryDy=0;exitX=0.5;exitY=1;exitDx=0;exitDy=0;strokeWidth=2;" edge="1" parent="1" source="Jwwh-HOvZ4n604pUyPyW-28" target="Jwwh-HOvZ4n604pUyPyW-38">
          <mxGeometry relative="1" as="geometry">
            <mxPoint x="610" y="590" as="sourcePoint" />
            <mxPoint x="610.5" y="700" as="targetPoint" />
          </mxGeometry>
        </mxCell>
        <mxCell id="Jwwh-HOvZ4n604pUyPyW-40" value="多个业务服务2" style="rounded=0;whiteSpace=wrap;html=1;" vertex="1" parent="1">
          <mxGeometry x="680" y="650" width="120" height="60" as="geometry" />
        </mxCell>
        <mxCell id="Jwwh-HOvZ4n604pUyPyW-42" value="" style="endArrow=classic;html=1;entryX=0.5;entryY=0;entryDx=0;entryDy=0;exitX=0.5;exitY=1;exitDx=0;exitDy=0;strokeWidth=2;" edge="1" parent="1" source="Jwwh-HOvZ4n604pUyPyW-29" target="Jwwh-HOvZ4n604pUyPyW-40">
          <mxGeometry relative="1" as="geometry">
            <mxPoint x="460" y="590" as="sourcePoint" />
            <mxPoint x="460" y="660" as="targetPoint" />
          </mxGeometry>
        </mxCell>
        <mxCell id="Jwwh-HOvZ4n604pUyPyW-43" value="" style="endArrow=classic;html=1;dashed=1;entryX=1;entryY=0.5;entryDx=0;entryDy=0;exitX=0;exitY=0.5;exitDx=0;exitDy=0;" edge="1" parent="1" source="Jwwh-HOvZ4n604pUyPyW-38" target="Jwwh-HOvZ4n604pUyPyW-13">
          <mxGeometry relative="1" as="geometry">
            <mxPoint x="400" y="560" as="sourcePoint" />
            <mxPoint x="290" y="480" as="targetPoint" />
          </mxGeometry>
        </mxCell>
        <mxCell id="Jwwh-HOvZ4n604pUyPyW-44" value="" style="endArrow=classic;html=1;dashed=1;entryX=0;entryY=0.5;entryDx=0;entryDy=0;exitX=1;exitY=0.5;exitDx=0;exitDy=0;" edge="1" parent="1" source="Jwwh-HOvZ4n604pUyPyW-38" target="Jwwh-HOvZ4n604pUyPyW-14">
          <mxGeometry relative="1" as="geometry">
            <mxPoint x="310" y="730" as="sourcePoint" />
            <mxPoint x="200" y="520" as="targetPoint" />
          </mxGeometry>
        </mxCell>
        <mxCell id="Jwwh-HOvZ4n604pUyPyW-45" value="" style="endArrow=classic;html=1;dashed=1;entryX=1.017;entryY=0.617;entryDx=0;entryDy=0;exitX=0;exitY=0.5;exitDx=0;exitDy=0;entryPerimeter=0;" edge="1" parent="1" source="Jwwh-HOvZ4n604pUyPyW-40" target="Jwwh-HOvZ4n604pUyPyW-13">
          <mxGeometry relative="1" as="geometry">
            <mxPoint x="400" y="690" as="sourcePoint" />
            <mxPoint x="290" y="480" as="targetPoint" />
          </mxGeometry>
        </mxCell>
        <mxCell id="Jwwh-HOvZ4n604pUyPyW-46" value="" style="endArrow=classic;html=1;dashed=1;entryX=0;entryY=0.5;entryDx=0;entryDy=0;exitX=1;exitY=0.5;exitDx=0;exitDy=0;" edge="1" parent="1" source="Jwwh-HOvZ4n604pUyPyW-40" target="Jwwh-HOvZ4n604pUyPyW-14">
          <mxGeometry relative="1" as="geometry">
            <mxPoint x="400" y="690" as="sourcePoint" />
            <mxPoint x="290" y="480" as="targetPoint" />
          </mxGeometry>
        </mxCell>
        <mxCell id="Jwwh-HOvZ4n604pUyPyW-49" value="&lt;font style=&quot;font-size: 16px&quot;&gt;VM1&lt;/font&gt;" style="text;html=1;strokeColor=none;fillColor=none;align=center;verticalAlign=middle;whiteSpace=wrap;rounded=0;dashed=1;" vertex="1" parent="1">
          <mxGeometry x="100" y="200" width="60" height="20" as="geometry" />
        </mxCell>
        <mxCell id="Jwwh-HOvZ4n604pUyPyW-51" value="&lt;font style=&quot;font-size: 16px&quot;&gt;VM2&lt;/font&gt;" style="text;html=1;strokeColor=none;fillColor=none;align=center;verticalAlign=middle;whiteSpace=wrap;rounded=0;dashed=1;" vertex="1" parent="1">
          <mxGeometry x="990" y="200" width="60" height="20" as="geometry" />
        </mxCell>
        <mxCell id="Jwwh-HOvZ4n604pUyPyW-53" value="&lt;font style=&quot;font-size: 16px&quot;&gt;Docker1&lt;/font&gt;" style="text;html=1;strokeColor=none;fillColor=none;align=center;verticalAlign=middle;whiteSpace=wrap;rounded=0;dashed=1;" vertex="1" parent="1">
          <mxGeometry x="130" y="350" width="60" height="20" as="geometry" />
        </mxCell>
        <mxCell id="Jwwh-HOvZ4n604pUyPyW-55" value="&lt;font style=&quot;font-size: 16px&quot;&gt;Docker2&lt;/font&gt;" style="text;html=1;strokeColor=none;fillColor=none;align=center;verticalAlign=middle;whiteSpace=wrap;rounded=0;dashed=1;" vertex="1" parent="1">
          <mxGeometry x="960" y="350" width="60" height="20" as="geometry" />
        </mxCell>
        <mxCell id="Jwwh-HOvZ4n604pUyPyW-57" value="" style="endArrow=classic;html=1;entryX=0.5;entryY=0;entryDx=0;entryDy=0;strokeWidth=2;" edge="1" parent="1" target="Jwwh-HOvZ4n604pUyPyW-40">
          <mxGeometry relative="1" as="geometry">
            <mxPoint x="450" y="580" as="sourcePoint" />
            <mxPoint x="460" y="660" as="targetPoint" />
          </mxGeometry>
        </mxCell>
        <mxCell id="Jwwh-HOvZ4n604pUyPyW-58" value="" style="endArrow=classic;html=1;strokeWidth=2;exitX=0.5;exitY=1;exitDx=0;exitDy=0;entryX=0.5;entryY=0;entryDx=0;entryDy=0;" edge="1" parent="1" source="Jwwh-HOvZ4n604pUyPyW-29" target="Jwwh-HOvZ4n604pUyPyW-38">
          <mxGeometry relative="1" as="geometry">
            <mxPoint x="460" y="590" as="sourcePoint" />
            <mxPoint x="750" y="660" as="targetPoint" />
          </mxGeometry>
        </mxCell>
      </root>
    </mxGraphModel>
  </diagram>
</mxfile>
